{
  "accessors": [
    {
      "bufferView": 2,
      "componentType": 5126,
      "count": 65532,
      "max": [
        0.3966270089149475,
        0.24522200226783752,
        0.9954749941825867
      ],
      "min": [
        -0.38901498913764954,
        -0.24044500291347504,
        -1.0002599954605103
      ],
      "type": "VEC3"
    },
    {
      "bufferView": 2,
      "byteOffset": 786384,
      "componentType": 5126,
      "count": 65532,
      "max": [
        0.999980092048645,
        0.9999974966049194,
        0.9999804496765137
      ],
      "min": [
        -0.9999840259552002,
        -0.9999966025352478,
        -0.9999976754188538
      ],
      "type": "VEC3"
    },
    {
      "bufferView": 1,
      "componentType": 5126,
      "count": 65532,
      "max": [
        0.99365234375,
        0.9933128356933594
      ],
      "min": [
        7.200241088867188e-05,
        0.0068359375
      ],
      "type": "VEC2"
    },
    {
      "bufferView": 0,
      "componentType": 5125,
      "count": 333885,
      "type": "SCALAR"
    },
    {
      "bufferView": 2,
      "byteOffset": 1572768,
      "componentType": 5126,
      "count": 45362,
      "max": [
        0.3966270089149475,
        0.24587100744247437,
        0.9973419904708862
      ],
      "min": [
        -0.3881790041923523,
        -0.23999600112438202,
        -1.0002599954605103
      ],
      "type": "VEC3"
    },
    {
      "bufferView": 2,
      "byteOffset": 2117112,
      "componentType": 5126,
      "count": 45362,
      "max": [
        0.999980092048645,
        0.9999952912330627,
        0.9999804496765137
      ],
      "min": [
        -0.9999796152114868,
        -0.9999966025352478,
        -0.9999982714653015
      ],
      "type": "VEC3"
    },
    {
      "bufferView": 1,
      "byteOffset": 524256,
      "componentType": 5126,
      "count": 45362,
      "max": [
        1.0,
        0.993927001953125
      ],
      "min": [
        0.00023603439331054688,
        0.0
      ],
      "type": "VEC2"
    },
    {
      "bufferView": 0,
      "byteOffset": 1335540,
      "componentType": 5125,
      "count": 194247,
      "type": "SCALAR"
    }
  ],
  "asset": {
    "extras": {
      "author": "Cj.savage (https://sketchfab.com/Cj.savage)",
      "license": "CC-BY-4.0 (http://creativecommons.org/licenses/by/4.0/)",
      "source": "https://sketchfab.com/3d-models/hazmat-suit-2819a9b345fb44958fc025fb52610526",
      "title": "Hazmat Suit"
    },
    "generator": "Sketchfab-16.72.0",
    "version": "2.0"
  },
  "bufferViews": [
    {
      "buffer": 0,
      "byteLength": 2112528,
      "name": "floatBufferViews",
      "target": 34963
    },
    {
      "buffer": 0,
      "byteLength": 887152,
      "byteOffset": 2112528,
      "byteStride": 8,
      "name": "floatBufferViews",
      "target": 34962
    },
    {
      "buffer": 0,
      "byteLength": 2661456,
      "byteOffset": 2999680,
      "byteStride": 12,
      "name": "floatBufferViews",
      "target": 34962
    }
  ],
  "buffers": [
    {
      "byteLength": 5661136,
      "uri": "scene.bin"
    }
  ],
  "images": [
    {
      "uri": "textures/Material.001_baseColor.jpeg"
    }
  ],
  "materials": [
    {
      "doubleSided": true,
      "name": "Material.001",
      "pbrMetallicRoughness": {
        "baseColorTexture": {
          "index": 0
        },
        "metallicFactor": 0.0,
        "roughnessFactor": 0.8868629150101524
      }
    }
  ],
  "meshes": [
    {
      "name": "Mesh_0_Material.001_0",
      "primitives": [
        {
          "attributes": {
            "NORMAL": 1,
            "POSITION": 0,
            "TEXCOORD_0": 2
          },
          "indices": 3,
          "material": 0,
          "mode": 4
        }
      ]
    },
    {
      "name": "Mesh_0_Material.001_0",
      "primitives": [
        {
          "attributes": {
            "NORMAL": 5,
            "POSITION": 4,
            "TEXCOORD_0": 6
          },
          "indices": 7,
          "material": 0,
          "mode": 4
        }
      ]
    }
  ],
  "nodes": [
    {
      "children": [
        1
      ],
      "matrix": [
        1.0,
        0.0,
        0.0,
        0.0,
        0.0,
        2.220446049250313e-16,
        -1.0,
        0.0,
        0.0,
        1.0,
        2.220446049250313e-16,
        0.0,
        0.0,
        0.0,
        0.0,
        1.0
      ],
      "name": "Sketchfab_model"
    },
    {
      "children": [
        2
      ],
      "matrix": [
        0.009999999776482582,
        0.0,
        0.0,
        0.0,
        0.0,
        0.0,
        0.009999999776482582,
        0.0,
        0.0,
        -0.009999999776482582,
        0.0,
        0.0,
        0.0,
        0.0,
        0.0,
        1.0
      ],
      "name": "Make_a_thick_yellow_h_0718201247_texture.fbx"
    },
    {
      "children": [
        3
      ],
      "name": "RootNode"
    },
    {
      "children": [
        4,
        5
      ],
      "matrix": [
        100.0,
        0.0,
        0.0,
        0.0,
        0.0,
        -4.371139006309477e-06,
        -99.9999999999999,
        0.0,
        0.0,
        99.9999999999999,
        -4.371139006309477e-06,
        0.0,
        0.0,
        0.0,
        0.0,
        1.0
      ],
      "name": "Mesh_0"
    },
    {
      "mesh": 0,
      "name": "Mesh_0_Material.001_0"
    },
    {
      "mesh": 1,
      "name": "Mesh_0_Material.001_0"
    }
  ],
  "samplers": [
    {
      "magFilter": 9729,
      "minFilter": 9987,
      "wrapS": 10497,
      "wrapT": 10497
    }
  ],
  "scene": 0,
  "scenes": [
    {
      "name": "Sketchfab_Scene",
      "nodes": [
        0
      ]
    }
  ],
  "textures": [
    {
      "sampler": 0,
      "source": 0
    }
  ]
}
